<svg xmlns="http://www.w3.org/2000/svg" xmlns:xlink="http://www.w3.org/1999/xlink" contentStyleType="text/css" data-diagram-type="DESCRIPTION" height="1189.0625px" preserveAspectRatio="none" style="width:1220px;height:1189px;background:#FFFFFF;" version="1.1" viewBox="0 0 1220 1189" width="1220.3125px" zoomAndPan="magnify"><?plantuml 1.2026.6?><defs/><g><g class="title" data-source-line="2"><text fill="#4338CA" font-family="'Helvetica Neue'" font-size="31.25" font-weight="700" lengthAdjust="spacing" textLength="1178.5308" x="15.625" y="47">Arquitetura de Implanta&#231;&#227;o (Docker Compose) &#8212; Sistema de Moeda Estudantil</text></g><!--cluster browser--><g class="cluster" data-qualified-name="browser" data-source-line="4" id="ent0001"><polygon fill="#F8FAFC" points="460.3716,95.9688,475.9966,80.3438,794.7466,80.3438,794.7466,235.8125,779.1216,251.4375,460.3716,251.4375,460.3716,95.9688" style="stroke:#8B5CF6;stroke-width:2.1875;stroke-linejoin:miter;stroke-miterlimit:10;"/><line style="stroke:#8B5CF6;stroke-width:2.1875;" x1="779.1216" x2="794.7466" y1="95.9688" y2="80.3438"/><line style="stroke:#8B5CF6;stroke-width:2.1875;" x1="460.3716" x2="779.1216" y1="95.9688" y2="95.9688"/><line style="stroke:#8B5CF6;stroke-width:2.1875;" x1="779.1216" x2="779.1216" y1="95.9688" y2="251.4375"/><text fill="#4338CA" font-family="'Helvetica Neue'" font-size="20.3125" font-weight="700" lengthAdjust="spacing" textLength="217.0594" x="512.7795" y="121.05">Navegador do Usu&#225;rio</text></g><!--cluster host--><g class="cluster" data-qualified-name="host" data-source-line="8" id="ent0003"><polygon fill="#F8FAFC" points="191.6216,356.125,207.2466,340.5,924.4341,340.5,924.4341,1135.875,908.8091,1151.5,191.6216,1151.5,191.6216,356.125" style="stroke:#8B5CF6;stroke-width:2.1875;stroke-linejoin:miter;stroke-miterlimit:10;"/><line style="stroke:#8B5CF6;stroke-width:2.1875;" x1="908.8091" x2="924.4341" y1="356.125" y2="340.5"/><line style="stroke:#8B5CF6;stroke-width:2.1875;" x1="191.6216" x2="908.8091" y1="356.125" y2="356.125"/><line style="stroke:#8B5CF6;stroke-width:2.1875;" x1="908.8091" x2="908.8091" y1="356.125" y2="1151.5"/><text fill="#4338CA" font-family="'Helvetica Neue'" font-size="20.3125" font-weight="700" lengthAdjust="spacing" textLength="121.5094" x="491.0232" y="381.2063">Docker Host</text></g><!--cluster cfront--><g class="cluster" data-qualified-name="host.cfront" data-source-line="10" id="ent0004"><polygon fill="#F8FAFC" points="518.1841,442.0625,533.8091,426.4375,821.3091,426.4375,821.3091,606.9219,805.6841,622.5469,518.1841,622.5469,518.1841,442.0625" style="stroke:#8B5CF6;stroke-width:2.1875;stroke-linejoin:miter;stroke-miterlimit:10;"/><line style="stroke:#8B5CF6;stroke-width:2.1875;" x1="805.6841" x2="821.3091" y1="442.0625" y2="426.4375"/><line style="stroke:#8B5CF6;stroke-width:2.1875;" x1="518.1841" x2="805.6841" y1="442.0625" y2="442.0625"/><line style="stroke:#8B5CF6;stroke-width:2.1875;" x1="805.6841" x2="805.6841" y1="442.0625" y2="622.5469"/><text fill="#4338CA" font-family="'Helvetica Neue'" font-size="20.3125" font-weight="700" lengthAdjust="spacing" textLength="185.4531" x="570.7701" y="467.1438">container: frontend</text><text fill="#4338CA" font-family="'Helvetica Neue'" font-size="20.3125" font-weight="700" lengthAdjust="spacing" textLength="67.6812" x="629.656" y="491.9453">(Nginx)</text></g><!--cluster cback--><g class="cluster" data-qualified-name="host.cback" data-source-line="14" id="ent0006"><polygon fill="#F8FAFC" points="241.6216,739.7344,257.2466,724.1094,580.6841,724.1094,580.6841,904.5938,565.0591,920.2188,241.6216,920.2188,241.6216,739.7344" style="stroke:#8B5CF6;stroke-width:2.1875;stroke-linejoin:miter;stroke-miterlimit:10;"/><line style="stroke:#8B5CF6;stroke-width:2.1875;" x1="565.0591" x2="580.6841" y1="739.7344" y2="724.1094"/><line style="stroke:#8B5CF6;stroke-width:2.1875;" x1="241.6216" x2="565.0591" y1="739.7344" y2="739.7344"/><line style="stroke:#8B5CF6;stroke-width:2.1875;" x1="565.0591" x2="565.0591" y1="739.7344" y2="920.2188"/><text fill="#4338CA" font-family="'Helvetica Neue'" font-size="20.3125" font-weight="700" lengthAdjust="spacing" textLength="186.5703" x="311.6177" y="764.8156">container: backend</text><text fill="#4338CA" font-family="'Helvetica Neue'" font-size="20.3125" font-weight="700" lengthAdjust="spacing" textLength="217.4859" x="296.1599" y="789.6172">(Spring Boot &#183; Java 21)</text></g><!--entity spa--><g class="entity" data-qualified-name="browser.spa" data-source-line="5" id="ent0002"><rect fill="#EEF2FF" height="60.1703" rx="9.375" ry="9.375" style="stroke:#6366F1;stroke-width:0.7813;" width="205.6172" x="509.1216" y="153.7813"/><polygon fill="#EEF2FF" points="688.1763,161.5938,688.1763,183.4688,706.9263,183.4688,706.9263,170.9688,697.5513,161.5938,688.1763,161.5938" style="stroke:#6366F1;stroke-width:0.7813;stroke-linejoin:miter;stroke-miterlimit:10;"/><line style="stroke:#6366F1;stroke-width:0.7813;" x1="697.5513" x2="697.5513" y1="161.5938" y2="170.9688"/><line style="stroke:#6366F1;stroke-width:0.7813;" x1="706.9263" x2="697.5513" y1="170.9688" y2="170.9688"/><text fill="#1E293B" font-family="'Helvetica Neue'" font-size="20.3125" lengthAdjust="spacing" textLength="39.4875" x="524.7466" y="194">SPA</text><text fill="#1E293B" font-family="'Helvetica Neue'" font-size="20.3125" lengthAdjust="spacing" textLength="5.6469" x="564.2341" y="194">&#160;</text><text fill="#1E293B" font-family="'Helvetica Neue'" font-size="20.3125" lengthAdjust="spacing" textLength="53.0359" x="569.881" y="194">React</text><text fill="#1E293B" font-family="'Helvetica Neue'" font-size="20.3125" lengthAdjust="spacing" textLength="5.6469" x="622.917" y="194">&#160;</text><text fill="#1E293B" font-family="'Helvetica Neue'" font-size="20.3125" lengthAdjust="spacing" textLength="54.925" x="628.5638" y="194">(build)</text></g><!--entity cmongo--><g class="entity" data-qualified-name="host.cmongo" data-source-line="18" id="ent0008"><path d="M422.7935,1047.5625 C422.7935,1031.9375 518.1857,1031.9375 518.1857,1031.9375 C518.1857,1031.9375 613.5779,1031.9375 613.5779,1047.5625 L613.5779,1110.0906 C613.5779,1125.7156 518.1857,1125.7156 518.1857,1125.7156 C518.1857,1125.7156 422.7935,1125.7156 422.7935,1110.0906 L422.7935,1047.5625" fill="#ECFDF5" style="stroke:#10B981;stroke-width:2.1875;"/><path d="M422.7935,1047.5625 C422.7935,1063.1875 518.1857,1063.1875 518.1857,1063.1875 C518.1857,1063.1875 613.5779,1063.1875 613.5779,1047.5625" fill="none" style="stroke:#10B981;stroke-width:2.1875;"/><text fill="#1E293B" font-family="'Helvetica Neue'" font-size="20.3125" lengthAdjust="spacing" textLength="90.2891" x="438.4185" y="1089.3438">container:</text><text fill="#1E293B" font-family="'Helvetica Neue'" font-size="20.3125" lengthAdjust="spacing" textLength="5.6469" x="528.7076" y="1089.3438">&#160;</text><text fill="#1E293B" font-family="'Helvetica Neue'" font-size="20.3125" lengthAdjust="spacing" textLength="63.5984" x="534.3544" y="1089.3438">mongo</text><text fill="#1E293B" font-family="'Helvetica Neue'" font-size="20.3125" lengthAdjust="spacing" textLength="97.4391" x="438.4185" y="1113.5766">(MongoDB</text><text fill="#1E293B" font-family="'Helvetica Neue'" font-size="20.3125" lengthAdjust="spacing" textLength="5.6469" x="535.8576" y="1113.5766">&#160;</text><text fill="#1E293B" font-family="'Helvetica Neue'" font-size="20.3125" lengthAdjust="spacing" textLength="16.5547" x="541.5045" y="1113.5766">7)</text></g><!--entity crabbit--><g class="entity" data-qualified-name="host.crabbit" data-source-line="19" id="ent0009"><path d="M279.1998,522.9219 L472.8029,522.9219 C480.6154,522.9219 480.6154,554.9672 480.6154,554.9672 C480.6154,554.9672 480.6154,587.0125 472.8029,587.0125 L279.1998,587.0125 C271.3873,587.0125 271.3873,554.9672 271.3873,554.9672 C271.3873,554.9672 271.3873,522.9219 279.1998,522.9219" fill="#FFF7ED" style="stroke:#F59E0B;stroke-width:2.1875;"/><path d="M472.8029,522.9219 C464.9904,522.9219 464.9904,554.9672 464.9904,554.9672 C464.9904,587.0125 472.8029,587.0125 472.8029,587.0125" fill="none" style="stroke:#F59E0B;stroke-width:2.1875;"/><text fill="#1E293B" font-family="'Helvetica Neue'" font-size="20.3125" lengthAdjust="spacing" textLength="90.2891" x="279.1998" y="550.6406">container:</text><text fill="#1E293B" font-family="'Helvetica Neue'" font-size="20.3125" lengthAdjust="spacing" textLength="5.6469" x="369.4888" y="550.6406">&#160;</text><text fill="#1E293B" font-family="'Helvetica Neue'" font-size="20.3125" lengthAdjust="spacing" textLength="82.0422" x="375.1357" y="550.6406">rabbitmq</text><text fill="#1E293B" font-family="'Helvetica Neue'" font-size="20.3125" lengthAdjust="spacing" textLength="98.2109" x="279.1998" y="574.8734">(RabbitMQ</text><text fill="#1E293B" font-family="'Helvetica Neue'" font-size="20.3125" lengthAdjust="spacing" textLength="5.6469" x="377.4107" y="574.8734">&#160;</text><text fill="#1E293B" font-family="'Helvetica Neue'" font-size="20.3125" lengthAdjust="spacing" textLength="44.7891" x="383.0576" y="574.8734">3.13)</text></g><!--entity cmail--><g class="entity" data-qualified-name="host.cmail" data-source-line="20" id="ent0010"><polygon fill="#F8FAFC" points="668.6529,1046.7813,684.2779,1031.1563,898.9544,1031.1563,898.9544,1110.8719,883.3294,1126.4969,668.6529,1126.4969,668.6529,1046.7813" style="stroke:#6366F1;stroke-width:2.1875;stroke-linejoin:miter;stroke-miterlimit:10;"/><line style="stroke:#6366F1;stroke-width:2.1875;" x1="883.3294" x2="898.9544" y1="1046.7813" y2="1031.1563"/><line style="stroke:#6366F1;stroke-width:2.1875;" x1="668.6529" x2="883.3294" y1="1046.7813" y2="1046.7813"/><line style="stroke:#6366F1;stroke-width:2.1875;" x1="883.3294" x2="883.3294" y1="1046.7813" y2="1126.4969"/><text fill="#4338CA" font-family="'Helvetica Neue'" font-size="20.3125" lengthAdjust="spacing" textLength="90.2891" x="692.0904" y="1082.3125">container:</text><text fill="#4338CA" font-family="'Helvetica Neue'" font-size="20.3125" lengthAdjust="spacing" textLength="5.6469" x="782.3794" y="1082.3125">&#160;</text><text fill="#4338CA" font-family="'Helvetica Neue'" font-size="20.3125" lengthAdjust="spacing" textLength="71.8656" x="788.0263" y="1082.3125">mailhog</text><text fill="#4338CA" font-family="'Helvetica Neue'" font-size="20.3125" lengthAdjust="spacing" textLength="60.9375" x="692.0904" y="1106.5453">(SMTP</text><text fill="#4338CA" font-family="'Helvetica Neue'" font-size="20.3125" lengthAdjust="spacing" textLength="5.6469" x="753.0279" y="1106.5453">&#160;</text><text fill="#4338CA" font-family="'Helvetica Neue'" font-size="20.3125" lengthAdjust="spacing" textLength="12.1875" x="758.6748" y="1106.5453">+</text><text fill="#4338CA" font-family="'Helvetica Neue'" font-size="20.3125" lengthAdjust="spacing" textLength="5.6469" x="770.8623" y="1106.5453">&#160;</text><text fill="#4338CA" font-family="'Helvetica Neue'" font-size="20.3125" lengthAdjust="spacing" textLength="41.7625" x="776.5091" y="1106.5453">Web</text><text fill="#4338CA" font-family="'Helvetica Neue'" font-size="20.3125" lengthAdjust="spacing" textLength="5.6469" x="818.2716" y="1106.5453">&#160;</text><text fill="#4338CA" font-family="'Helvetica Neue'" font-size="20.3125" lengthAdjust="spacing" textLength="25.1875" x="823.9185" y="1106.5453">UI)</text></g><!--entity dist--><g class="entity" data-qualified-name="host.cfront.dist" data-source-line="11" id="ent0005"><rect fill="#EEF2FF" height="60.1703" rx="9.375" ry="9.375" style="stroke:#6366F1;stroke-width:0.7813;" width="164.2406" x="556.3716" y="524.875"/><polygon fill="#EEF2FF" points="694.0498,532.6875,694.0498,554.5625,712.7998,554.5625,712.7998,542.0625,703.4248,532.6875,694.0498,532.6875" style="stroke:#6366F1;stroke-width:0.7813;stroke-linejoin:miter;stroke-miterlimit:10;"/><line style="stroke:#6366F1;stroke-width:0.7813;" x1="703.4248" x2="703.4248" y1="532.6875" y2="542.0625"/><line style="stroke:#6366F1;stroke-width:0.7813;" x1="712.7998" x2="703.4248" y1="542.0625" y2="542.0625"/><text fill="#1E293B" font-family="'Helvetica Neue'" font-size="20.3125" lengthAdjust="spacing" textLength="39.8734" x="571.9966" y="565.0938">dist/</text><text fill="#1E293B" font-family="'Helvetica Neue'" font-size="20.3125" lengthAdjust="spacing" textLength="5.6469" x="611.8701" y="565.0938">&#160;</text><text fill="#1E293B" font-family="'Helvetica Neue'" font-size="20.3125" lengthAdjust="spacing" textLength="71.8453" x="617.517" y="565.0938">est&#225;tico</text></g><!--entity jar--><g class="entity" data-qualified-name="host.cback.jar" data-source-line="15" id="ent0007"><rect fill="#EEF2FF" height="60.1703" rx="9.375" ry="9.375" style="stroke:#6366F1;stroke-width:0.7813;" width="233.8719" x="279.3716" y="822.5469"/><polygon fill="#EEF2FF" points="486.681,830.3594,486.681,852.2344,505.431,852.2344,505.431,839.7344,496.056,830.3594,486.681,830.3594" style="stroke:#6366F1;stroke-width:0.7813;stroke-linejoin:miter;stroke-miterlimit:10;"/><line style="stroke:#6366F1;stroke-width:0.7813;" x1="496.056" x2="496.056" y1="830.3594" y2="839.7344"/><line style="stroke:#6366F1;stroke-width:0.7813;" x1="505.431" x2="496.056" y1="839.7344" y2="839.7344"/><text fill="#1E293B" font-family="'Helvetica Neue'" font-size="20.3125" lengthAdjust="spacing" textLength="186.9969" x="294.9966" y="862.7656">moeda-estudantil.jar</text></g><!--link browser to cfront--><g class="link" data-entity-1="ent0001" data-entity-2="ent0004" data-link-type="dependency" data-source-line="23" id="lnk11"><path d="M775.9966,251.8744 C775.9966,252.4292 775.9966,252.9865 775.9966,253.5461 C775.9966,254.6655 775.9966,255.7945 775.9966,256.9327 C775.9966,261.4859 775.9966,266.1882 775.9966,271.0187 C775.9966,280.6796 775.9966,290.8533 775.9966,301.3723 C775.9966,322.4103 775.9966,344.8296 775.9966,367.291 C775.9966,378.5217 775.9966,389.763 775.9966,400.8473 C775.9966,406.3895 775.9966,411.8925 775.9966,417.3353 C775.9966,420.0567 775.9966,414.9506 775.9966,417.6393" fill="none" id="browser-to-cfront" style="stroke:#64748B;stroke-width:1.875;"/><polygon fill="#64748B" points="775.9966,425.4518,782.2466,411.3893,775.9966,417.6393,769.7466,411.3893,775.9966,425.4518" style="stroke:#64748B;stroke-width:1.875;stroke-linejoin:miter;stroke-miterlimit:10;"/><text fill="#1E293B" font-family="'Helvetica Neue'" font-size="20.3125" lengthAdjust="spacing" textLength="51.1469" x="777.5591" y="310.4063">HTTP</text><text fill="#1E293B" font-family="'Helvetica Neue'" font-size="20.3125" lengthAdjust="spacing" textLength="11.2938" x="828.706" y="310.4063">&#160;&#160;</text><text fill="#1E293B" font-family="'Helvetica Neue'" font-size="20.3125" lengthAdjust="spacing" textLength="50.8219" x="839.9998" y="310.4063">:3000</text></g><!--link cfront to cback--><g class="link" data-entity-1="ent0004" data-entity-2="ent0006" data-link-type="dependency" data-source-line="24" id="lnk12"><path d="M757.8672,622.8798 C757.8065,623.035 757.7456,623.1901 757.6846,623.3452 C757.5625,623.6554 757.4397,623.9654 757.3163,624.2753 C757.0695,624.895 756.82,625.514 756.5678,626.132 C755.5591,628.6043 754.5075,631.0614 753.4121,633.4875 C751.2215,638.3398 748.856,643.0684 746.3091,647.5469 C731.6841,673.2656 688.3052,722.9727 648.0201,766.8242 C627.8775,788.75 608.5084,809.2119 593.8936,824.4795 C590.2399,828.2964 586.8834,831.7886 583.8862,834.8979 C583.1369,835.6753 582.4101,836.4287 581.7067,837.1572 C581.5308,837.3394 586.784,831.9006 586.6111,832.0796" fill="none" id="cfront-to-cback" style="stroke:#64748B;stroke-width:1.875;"/><polygon fill="#64748B" points="581.1835,837.699,595.4486,831.9262,586.6111,832.0796,586.4576,823.2421,581.1835,837.699" style="stroke:#64748B;stroke-width:1.875;stroke-linejoin:miter;stroke-miterlimit:10;"/><text fill="#1E293B" font-family="'Helvetica Neue'" font-size="20.3125" lengthAdjust="spacing" textLength="51.1469" x="738.606" y="681.5156">proxy</text><text fill="#1E293B" font-family="'Helvetica Neue'" font-size="20.3125" lengthAdjust="spacing" textLength="5.6469" x="789.7529" y="681.5156">&#160;</text><text fill="#1E293B" font-family="'Helvetica Neue'" font-size="20.3125" lengthAdjust="spacing" textLength="34.2266" x="795.3998" y="681.5156">/api</text><text fill="#1E293B" font-family="'Helvetica Neue'" font-size="20.3125" lengthAdjust="spacing" textLength="11.2938" x="829.6263" y="681.5156">&#160;&#160;</text><text fill="#1E293B" font-family="'Helvetica Neue'" font-size="20.3125" lengthAdjust="spacing" textLength="50.8219" x="840.9201" y="681.5156">:8080</text></g><!--link cback to cmongo--><g class="link" data-entity-1="ent0006" data-entity-2="ent0008" data-link-type="dependency" data-source-line="25" id="lnk13"><path d="M551.8567,920.4817 C551.8139,920.6608 551.7711,920.84 551.7282,921.0194 C551.5569,921.7367 551.3855,922.4555 551.2139,923.1755 C548.4693,934.6963 545.7037,946.5352 543.1841,957.7188 C537.731,981.9219 533.618,1001.3166 529.0399,1023.5666" fill="none" id="cback-to-cmongo" style="stroke:#64748B;stroke-width:1.875;"/><polygon fill="#64748B" points="527.4654,1031.2188,536.4213,1018.7044,529.0399,1023.5666,524.1777,1016.1852,527.4654,1031.2188" style="stroke:#64748B;stroke-width:1.875;stroke-linejoin:miter;stroke-miterlimit:10;"/><text fill="#1E293B" font-family="'Helvetica Neue'" font-size="20.3125" lengthAdjust="spacing" textLength="63.9641" x="544.7466" y="979.1875">Mongo</text><text fill="#1E293B" font-family="'Helvetica Neue'" font-size="20.3125" lengthAdjust="spacing" textLength="11.2938" x="608.7107" y="979.1875">&#160;&#160;</text><text fill="#1E293B" font-family="'Helvetica Neue'" font-size="20.3125" lengthAdjust="spacing" textLength="62.1156" x="620.0045" y="979.1875">:27017</text></g><!--link cback to crabbit--><g class="link" data-entity-1="ent0006" data-entity-2="ent0009" data-link-type="dependency" data-source-line="26" id="lnk14"><path d="M555.6101,723.6014 C555.3755,723.1285 555.1376,722.6575 554.8965,722.1883 C554.4143,721.25 553.9191,720.3193 553.4106,719.3967 C549.3428,712.0159 544.4244,705.1563 538.4966,699.1094 C520.0904,680.3438 503.0591,700.4219 480.6841,686.6094 C441.2154,662.25 414.1449,624.2653 396.4262,594.1403" fill="none" id="cback-to-crabbit" style="stroke:#64748B;stroke-width:1.875;"/><polygon fill="#64748B" points="392.4654,587.4063,394.2076,602.6962,396.4262,594.1403,404.982,596.3589,392.4654,587.4063" style="stroke:#64748B;stroke-width:1.875;stroke-linejoin:miter;stroke-miterlimit:10;"/><text fill="#1E293B" font-family="'Helvetica Neue'" font-size="20.3125" lengthAdjust="spacing" textLength="59.4547" x="482.2466" y="681.5156">AMQP</text><text fill="#1E293B" font-family="'Helvetica Neue'" font-size="20.3125" lengthAdjust="spacing" textLength="5.6469" x="541.7013" y="681.5156">&#160;</text><text fill="#1E293B" font-family="'Helvetica Neue'" font-size="20.3125" lengthAdjust="spacing" textLength="65.8531" x="547.3482" y="681.5156">publish</text><text fill="#1E293B" font-family="'Helvetica Neue'" font-size="20.3125" lengthAdjust="spacing" textLength="11.2938" x="613.2013" y="681.5156">&#160;&#160;</text><text fill="#1E293B" font-family="'Helvetica Neue'" font-size="20.3125" lengthAdjust="spacing" textLength="50.8219" x="624.4951" y="681.5156">:5672</text></g><!--link crabbit to cback--><g class="link" data-entity-1="ent0009" data-entity-2="ent0006" data-link-type="dependency" data-source-line="27" id="lnk15"><path d="M330.3873,587.4063 C294.8716,615.0781 256.1529,655.9063 285.3716,686.6094 C304.7935,707.0156 517.2154,680.6875 538.4966,699.1094 C544.899,704.6523 550.1754,711.1321 554.5059,718.2341 C555.5885,720.0096 552.9899,714.902 553.9571,716.7504" fill="none" id="crabbit-to-cback" style="stroke:#64748B;stroke-width:1.875;"/><polygon fill="#64748B" points="557.5793,723.6724,556.597,708.315,553.9571,716.7504,545.5217,714.1104,557.5793,723.6724" style="stroke:#64748B;stroke-width:1.875;stroke-linejoin:miter;stroke-miterlimit:10;"/><text fill="#1E293B" font-family="'Helvetica Neue'" font-size="20.3125" lengthAdjust="spacing" textLength="59.4547" x="286.9341" y="681.5156">AMQP</text><text fill="#1E293B" font-family="'Helvetica Neue'" font-size="20.3125" lengthAdjust="spacing" textLength="5.6469" x="346.3888" y="681.5156">&#160;</text><text fill="#1E293B" font-family="'Helvetica Neue'" font-size="20.3125" lengthAdjust="spacing" textLength="83.5453" x="352.0357" y="681.5156">consume</text></g><!--link cback to cmail--><g class="link" data-entity-1="ent0006" data-entity-2="ent0010" data-link-type="dependency" data-source-line="28" id="lnk16"><path d="M580.8519,863.8155 C581.3153,864.1725 581.7895,864.5383 582.2742,864.9128 C590.0294,870.9048 600.4664,879.1123 612.2525,888.7598 C635.8248,908.0547 664.7935,933.1094 688.4966,957.7188 C710.4029,980.4688 727.8059,1001.6942 745.2277,1024.5379" fill="none" id="cback-to-cmail" style="stroke:#64748B;stroke-width:1.875;"/><polygon fill="#64748B" points="749.9654,1030.75,746.4073,1015.7782,745.2277,1024.5379,736.468,1023.3584,749.9654,1030.75" style="stroke:#64748B;stroke-width:1.875;stroke-linejoin:miter;stroke-miterlimit:10;"/><text fill="#1E293B" font-family="'Helvetica Neue'" font-size="20.3125" lengthAdjust="spacing" textLength="55.6766" x="712.5591" y="979.1875">SMTP</text><text fill="#1E293B" font-family="'Helvetica Neue'" font-size="20.3125" lengthAdjust="spacing" textLength="11.2938" x="768.2357" y="979.1875">&#160;&#160;</text><text fill="#1E293B" font-family="'Helvetica Neue'" font-size="20.3125" lengthAdjust="spacing" textLength="50.8219" x="779.5295" y="979.1875">:1025</text></g><!--link browser to crabbit--><g class="link" data-entity-1="ent0001" data-entity-2="ent0009" data-link-type="dependency" data-source-line="29" id="lnk17"><path d="M760.0947,251.6639 C760.0183,251.8112 759.9415,251.9583 759.8643,252.1052 C754.9254,261.5078 748.4771,270.1094 740.0591,276.4375 C716.6373,294.0625 636.9654,280.8594 608.8091,288.9375 C571.4966,299.6406 559.9654,302.5156 530.6841,328 C465.1841,385.0469 417.7921,468.7413 394.089,515.8038" fill="none" id="browser-to-crabbit" style="stroke:#64748B;stroke-width:1.875;stroke-dasharray:10.9375,10.9375;"/><polygon fill="#64748B" points="390.5748,522.7813,402.4824,513.0332,394.089,515.8038,391.3184,507.4104,390.5748,522.7813" style="stroke:#64748B;stroke-width:1.875;stroke-linejoin:miter;stroke-miterlimit:10;"/><text fill="#1E293B" font-family="'Helvetica Neue'" font-size="20.3125" lengthAdjust="spacing" textLength="53.0766" x="610.3716" y="310.4063">Mgmt</text><text fill="#1E293B" font-family="'Helvetica Neue'" font-size="20.3125" lengthAdjust="spacing" textLength="5.6469" x="663.4482" y="310.4063">&#160;</text><text fill="#1E293B" font-family="'Helvetica Neue'" font-size="20.3125" lengthAdjust="spacing" textLength="19.9266" x="669.0951" y="310.4063">UI</text><text fill="#1E293B" font-family="'Helvetica Neue'" font-size="20.3125" lengthAdjust="spacing" textLength="11.2938" x="689.0216" y="310.4063">&#160;&#160;</text><text fill="#1E293B" font-family="'Helvetica Neue'" font-size="20.3125" lengthAdjust="spacing" textLength="62.1156" x="700.3154" y="310.4063">:15672</text></g><!--link browser to cmail--><g class="link" data-entity-1="ent0001" data-entity-2="ent0010" data-link-type="dependency" data-source-line="30" id="lnk18"><path d="M794.7998,193.8626 C795.4322,194.1714 796.0769,194.4885 796.7332,194.8139 C798.0458,195.4646 799.4051,196.1484 800.8063,196.8649 C803.6088,198.2979 806.579,199.8618 809.6795,201.5547 C815.8804,204.9404 822.6021,208.8418 829.5435,213.2422 C857.3091,230.8438 888.5904,256.4297 904.1216,288.9375 C909.2154,299.5938 904.1685,303.7031 904.1216,315.5 C902.8716,613.9688 953.9029,707.1094 843.1841,984.2813 C836.856,1000.1094 832.0022,1009.61 822.8147,1023.8288" fill="none" id="browser-to-cmail" style="stroke:#64748B;stroke-width:1.875;stroke-dasharray:10.9375,10.9375;"/><polygon fill="#64748B" points="818.5748,1030.3906,831.4562,1021.9713,822.8147,1023.8288,820.9572,1015.1873,818.5748,1030.3906" style="stroke:#64748B;stroke-width:1.875;stroke-linejoin:miter;stroke-miterlimit:10;"/><text fill="#1E293B" font-family="'Helvetica Neue'" font-size="20.3125" lengthAdjust="spacing" textLength="50.7813" x="916.1998" y="681.5156">Inbox</text><text fill="#1E293B" font-family="'Helvetica Neue'" font-size="20.3125" lengthAdjust="spacing" textLength="11.2938" x="966.981" y="681.5156">&#160;&#160;</text><text fill="#1E293B" font-family="'Helvetica Neue'" font-size="20.3125" lengthAdjust="spacing" textLength="50.8219" x="978.2748" y="681.5156">:8025</text></g><?plantuml-src RL5BRjim4Dth55El71HMP1kf0oqAE4s1k8029qxGJJSZaP7PYgJCJ-gW2D13z0915pr2z_LDUfAEA2cmqQmucFVclNd3Lq8LbMSSh7keU2oyh28dNCLXRZPUEEwyGI1y8UiAbSFThzrF3SDpNNpX1jvfMMlBZ-3lzn-m4jPn6TYPvWpXlNMUqP2eeaXfQWykyPwNoBG1fk7M-jsJ4Ne0Q24t-gibnMyH01edxh1mC5Wjvt3DctAOUr6ney2rDKQFlMItoOMsBe1hAaY5P5gyqBIrKDoaS6UevefzKiFBKgXjgrQ4TZ3UjsQKvXYuTRid9ufsoQP7jCSNrNEaHOBugZP2bN2cjOC_l-43tYDCnfrRG_lFJ3Rt6l7dUyMVqGGwlRqXGuSvsaDJgLMfoJ9htlCpc7KkeKz36y_zuOJ1F1TERcZeEfJP5KpZyRGRRE6NyaaKrLgNJRxiPWcluIFFuNRH6nBQV4h_ZwFHs_woALpSq02aqoH9eguPy72B56gZjmzmZBKWqcboIgI014v8GgIGaF39B1dFzWdjniIOPrTBg7rU2RicuicRsIJgqNsxmADWraj-u4GH20xf81qdavFdD76yRvILqb7oXXHC3bYToaBbUXlYaCm_?></g></svg>