<svg xmlns="http://www.w3.org/2000/svg" xmlns:xlink="http://www.w3.org/1999/xlink" contentStyleType="text/css" data-diagram-type="DESCRIPTION" height="950px" preserveAspectRatio="none" style="width:1435px;height:950px;background:#FFFFFF;" version="1.1" viewBox="0 0 1435 950" width="1435.9375px" zoomAndPan="magnify"><?plantuml 1.2026.6?><defs/><g><g class="title" data-source-line="3"><text fill="#4338CA" font-family="'Helvetica Neue'" font-size="31.25" font-weight="700" lengthAdjust="spacing" textLength="889.8748" x="268.0704" y="47">Diagrama de Casos de Uso &#8212; Sistema de Moeda Estudantil</text></g><!--cluster Sistema de Moeda Estudantil--><g class="cluster" data-qualified-name="Sistema de Moeda Estudantil" data-source-line="10" id="ent0005"><rect fill="#F8FAFC" height="793.75" rx="9.375" ry="9.375" style="stroke:#8B5CF6;stroke-width:2.1875;" width="1068.0625" x="170.0469" y="81.9063"/><text fill="#4338CA" font-family="'Helvetica Neue'" font-size="20.3125" font-weight="700" lengthAdjust="spacing" textLength="282.7906" x="562.6828" y="105.425">Sistema de Moeda Estudantil</text></g><!--entity UC1--><g class="entity" data-qualified-name="Sistema de Moeda Estudantil.UC1" data-source-line="11" id="ent0006"><ellipse cx="310.2019" cy="511.5883" fill="#EEF2FF" rx="88.4675" ry="21.8227" style="stroke:#6366F1;stroke-width:2.1875;"/><text fill="#1E293B" font-family="'Helvetica Neue'" font-size="20.3125" lengthAdjust="spacing" textLength="118.4828" x="250.9605" y="518.236">Cadastrar-se</text></g><!--entity UC2--><g class="entity" data-qualified-name="Sistema de Moeda Estudantil.UC2" data-source-line="12" id="ent0007"><ellipse cx="310.2093" cy="613.1512" fill="#EEF2FF" rx="105.4437" ry="24.8387" style="stroke:#6366F1;stroke-width:2.1875;"/><text fill="#1E293B" font-family="'Helvetica Neue'" font-size="20.3125" lengthAdjust="spacing" textLength="92.5438" x="229.7008" y="619.7989">Autenticar</text><text fill="#1E293B" font-family="'Helvetica Neue'" font-size="20.3125" lengthAdjust="spacing" textLength="5.6469" x="322.2445" y="619.7989">&#160;</text><text fill="#1E293B" font-family="'Helvetica Neue'" font-size="20.3125" lengthAdjust="spacing" textLength="6.7641" x="327.8914" y="619.7989">/</text><text fill="#1E293B" font-family="'Helvetica Neue'" font-size="20.3125" lengthAdjust="spacing" textLength="5.6469" x="334.6554" y="619.7989">&#160;</text><text fill="#1E293B" font-family="'Helvetica Neue'" font-size="20.3125" lengthAdjust="spacing" textLength="50.4156" x="340.3023" y="619.7989">Login</text></g><!--entity UC3--><g class="entity" data-qualified-name="Sistema de Moeda Estudantil.UC3" data-source-line="13" id="ent0008"><ellipse cx="697.3942" cy="675.6572" fill="#EEF2FF" rx="92.363" ry="36.2353" style="stroke:#6366F1;stroke-width:2.1875;"/><text fill="#1E293B" font-family="'Helvetica Neue'" font-size="20.3125" lengthAdjust="spacing" textLength="56.0422" x="630.0481" y="674.2214">Enviar</text><text fill="#1E293B" font-family="'Helvetica Neue'" font-size="20.3125" lengthAdjust="spacing" textLength="5.6469" x="686.0903" y="674.2214">&#160;</text><text fill="#1E293B" font-family="'Helvetica Neue'" font-size="20.3125" lengthAdjust="spacing" textLength="73.0031" x="691.7372" y="674.2214">moedas</text><text fill="#1E293B" font-family="'Helvetica Neue'" font-size="20.3125" lengthAdjust="spacing" textLength="22.5672" x="658.4552" y="698.4542">ao</text><text fill="#1E293B" font-family="'Helvetica Neue'" font-size="20.3125" lengthAdjust="spacing" textLength="5.6469" x="681.0223" y="698.4542">&#160;</text><text fill="#1E293B" font-family="'Helvetica Neue'" font-size="20.3125" lengthAdjust="spacing" textLength="49.6641" x="686.6692" y="698.4542">aluno</text></g><!--entity UC4--><g class="entity" data-qualified-name="Sistema de Moeda Estudantil.UC4" data-source-line="14" id="ent0009"><ellipse cx="310.2099" cy="717.8514" fill="#EEF2FF" rx="103.788" ry="24.5076" style="stroke:#6366F1;stroke-width:2.1875;"/><text fill="#1E293B" font-family="'Helvetica Neue'" font-size="20.3125" lengthAdjust="spacing" textLength="87.6484" x="231.7833" y="724.499">Consultar</text><text fill="#1E293B" font-family="'Helvetica Neue'" font-size="20.3125" lengthAdjust="spacing" textLength="5.6469" x="319.4317" y="724.499">&#160;</text><text fill="#1E293B" font-family="'Helvetica Neue'" font-size="20.3125" lengthAdjust="spacing" textLength="63.5578" x="325.0786" y="724.499">extrato</text></g><!--entity UC5--><g class="entity" data-qualified-name="Sistema de Moeda Estudantil.UC5" data-source-line="15" id="ent0010"><ellipse cx="310.2069" cy="824.0914" fill="#EEF2FF" rx="115.1444" ry="26.7789" style="stroke:#6366F1;stroke-width:2.1875;"/><text fill="#1E293B" font-family="'Helvetica Neue'" font-size="20.3125" lengthAdjust="spacing" textLength="89.5172" x="217.846" y="830.739">Cadastrar</text><text fill="#1E293B" font-family="'Helvetica Neue'" font-size="20.3125" lengthAdjust="spacing" textLength="5.6469" x="307.3631" y="830.739">&#160;</text><text fill="#1E293B" font-family="'Helvetica Neue'" font-size="20.3125" lengthAdjust="spacing" textLength="89.5578" x="313.01" y="830.739">vantagem</text></g><!--entity UC6--><g class="entity" data-qualified-name="Sistema de Moeda Estudantil.UC6" data-source-line="16" id="ent0011"><ellipse cx="310.2088" cy="158.4668" fill="#EEF2FF" rx="100.8495" ry="23.9199" style="stroke:#6366F1;stroke-width:2.1875;"/><text fill="#1E293B" font-family="'Helvetica Neue'" font-size="20.3125" lengthAdjust="spacing" textLength="50.0297" x="235.5299" y="165.1144">Listar</text><text fill="#1E293B" font-family="'Helvetica Neue'" font-size="20.3125" lengthAdjust="spacing" textLength="5.6469" x="285.5596" y="165.1144">&#160;</text><text fill="#1E293B" font-family="'Helvetica Neue'" font-size="20.3125" lengthAdjust="spacing" textLength="93.6813" x="291.2065" y="165.1144">vantagens</text></g><!--entity UC7--><g class="entity" data-qualified-name="Sistema de Moeda Estudantil.UC7" data-source-line="17" id="ent0012"><ellipse cx="310.1964" cy="272.539" fill="#EEF2FF" rx="107.5714" ry="36.1796" style="stroke:#6366F1;stroke-width:2.1875;"/><text fill="#1E293B" font-family="'Helvetica Neue'" font-size="20.3125" lengthAdjust="spacing" textLength="81.6156" x="231.0284" y="271.1903">Resgatar</text><text fill="#1E293B" font-family="'Helvetica Neue'" font-size="20.3125" lengthAdjust="spacing" textLength="5.6469" x="312.6441" y="271.1903">&#160;</text><text fill="#1E293B" font-family="'Helvetica Neue'" font-size="20.3125" lengthAdjust="spacing" textLength="6.7641" x="318.2909" y="271.1903">/</text><text fill="#1E293B" font-family="'Helvetica Neue'" font-size="20.3125" lengthAdjust="spacing" textLength="5.6469" x="325.055" y="271.1903">&#160;</text><text fill="#1E293B" font-family="'Helvetica Neue'" font-size="20.3125" lengthAdjust="spacing" textLength="58.6625" x="330.7019" y="271.1903">Trocar</text><text fill="#1E293B" font-family="'Helvetica Neue'" font-size="20.3125" lengthAdjust="spacing" textLength="89.5578" x="265.4175" y="295.4231">vantagem</text></g><!--entity UC8--><g class="entity" data-qualified-name="Sistema de Moeda Estudantil.UC8" data-source-line="18" id="ent0013"><ellipse cx="1091.2886" cy="391.2829" fill="#EEF2FF" rx="121.8355" ry="35.9392" style="stroke:#6366F1;stroke-width:2.1875;"/><text fill="#1E293B" font-family="'Helvetica Neue'" font-size="20.3125" lengthAdjust="spacing" textLength="76.3547" x="1000.4511" y="390.3128">Receber</text><text fill="#1E293B" font-family="'Helvetica Neue'" font-size="20.3125" lengthAdjust="spacing" textLength="5.6469" x="1076.8058" y="390.3128">&#160;</text><text fill="#1E293B" font-family="'Helvetica Neue'" font-size="20.3125" lengthAdjust="spacing" textLength="99.6734" x="1082.4526" y="390.3128">notifica&#231;&#227;o</text><text fill="#1E293B" font-family="'Helvetica Neue'" font-size="20.3125" lengthAdjust="spacing" textLength="30.4688" x="1045.1995" y="414.5456">por</text><text fill="#1E293B" font-family="'Helvetica Neue'" font-size="20.3125" lengthAdjust="spacing" textLength="5.6469" x="1075.6683" y="414.5456">&#160;</text><text fill="#1E293B" font-family="'Helvetica Neue'" font-size="20.3125" lengthAdjust="spacing" textLength="56.0625" x="1081.3151" y="414.5456">e-mail</text></g><!--entity UC9--><g class="entity" data-qualified-name="Sistema de Moeda Estudantil.UC9" data-source-line="19" id="ent0014"><ellipse cx="697.3957" cy="272.5324" fill="#EEF2FF" rx="87.3488" ry="38.173" style="stroke:#6366F1;stroke-width:2.1875;"/><text fill="#1E293B" font-family="'Helvetica Neue'" font-size="20.3125" lengthAdjust="spacing" textLength="50.7609" x="637.5753" y="268.1869">Gerar</text><text fill="#1E293B" font-family="'Helvetica Neue'" font-size="20.3125" lengthAdjust="spacing" textLength="5.6469" x="688.3363" y="268.1869">&#160;</text><text fill="#1E293B" font-family="'Helvetica Neue'" font-size="20.3125" lengthAdjust="spacing" textLength="63.2328" x="693.9832" y="268.1869">cupom</text><text fill="#1E293B" font-family="'Helvetica Neue'" font-size="20.3125" lengthAdjust="spacing" textLength="39.8937" x="643.405" y="292.4197">com</text><text fill="#1E293B" font-family="'Helvetica Neue'" font-size="20.3125" lengthAdjust="spacing" textLength="5.6469" x="683.2988" y="292.4197">&#160;</text><text fill="#1E293B" font-family="'Helvetica Neue'" font-size="20.3125" lengthAdjust="spacing" textLength="62.4406" x="688.9457" y="292.4197">c&#243;digo</text></g><!--entity UC10--><g class="entity" data-qualified-name="Sistema de Moeda Estudantil.UC10" data-source-line="20" id="ent0015"><ellipse cx="310.207" cy="399.0935" fill="#EEF2FF" rx="93.9883" ry="35.8748" style="stroke:#6366F1;stroke-width:2.1875;"/><text fill="#1E293B" font-family="'Helvetica Neue'" font-size="20.3125" lengthAdjust="spacing" textLength="88.3797" x="240.8195" y="398.2255">Gerenciar</text><text fill="#1E293B" font-family="'Helvetica Neue'" font-size="20.3125" lengthAdjust="spacing" textLength="5.6469" x="329.1992" y="398.2255">&#160;</text><text fill="#1E293B" font-family="'Helvetica Neue'" font-size="20.3125" lengthAdjust="spacing" textLength="44.7484" x="334.8461" y="398.2255">perfil</text><text fill="#1E293B" font-family="'Helvetica Neue'" font-size="20.3125" lengthAdjust="spacing" textLength="68.0672" x="276.1734" y="422.4584">(CRUD)</text></g><!--entity aluno--><g class="entity" data-qualified-name="aluno" data-source-line="5" id="ent0001"><ellipse cx="53" cy="291.6563" fill="#EEF2FF" rx="25" ry="25" style="stroke:#6366F1;stroke-width:0.7813;"/><path d="M53,322.9063 C59.25,322.9063 63.9375,322.9063 70.1875,316.6563 C82.6875,316.6563 95.1875,329.1563 95.1875,341.6563 L95.1875,347.9063 C95.1875,354.1563 88.9375,360.4063 82.6875,360.4063 L23.3125,360.4063 C17.0625,360.4063 10.8125,354.1563 10.8125,347.9063 L10.8125,341.6563 C10.8125,329.1563 23.3125,316.6563 35.8125,316.6563 C42.0625,322.9063 46.75,322.9063 53,322.9063" fill="#EEF2FF" style="stroke:#6366F1;stroke-width:0.7813;"/><text fill="#1E293B" font-family="'Helvetica Neue'" font-size="20.3125" lengthAdjust="spacing" textLength="51.9188" x="27.0406" y="381.0938">Aluno</text></g><!--entity prof--><g class="entity" data-qualified-name="prof" data-source-line="6" id="ent0002"><ellipse cx="52.9961" cy="835.4063" fill="#EEF2FF" rx="25" ry="25" style="stroke:#6366F1;stroke-width:0.7813;"/><path d="M52.9961,866.6563 C59.2461,866.6563 63.9336,866.6563 70.1836,860.4063 C82.6836,860.4063 95.1836,872.9063 95.1836,885.4063 L95.1836,891.6563 C95.1836,897.9063 88.9336,904.1563 82.6836,904.1563 L23.3086,904.1563 C17.0586,904.1563 10.8086,897.9063 10.8086,891.6563 L10.8086,885.4063 C10.8086,872.9063 23.3086,860.4063 35.8086,860.4063 C42.0586,866.6563 46.7461,866.6563 52.9961,866.6563" fill="#EEF2FF" style="stroke:#6366F1;stroke-width:0.7813;"/><text fill="#1E293B" font-family="'Helvetica Neue'" font-size="20.3125" lengthAdjust="spacing" textLength="87.2422" x="9.375" y="924.8438">Professor</text></g><!--entity empresa--><g class="entity" data-qualified-name="empresa" data-source-line="7" id="ent0003"><ellipse cx="53" cy="599.8594" fill="#EEF2FF" rx="25" ry="25" style="stroke:#6366F1;stroke-width:0.7813;"/><path d="M53,631.1094 C59.25,631.1094 63.9375,631.1094 70.1875,624.8594 C82.6875,624.8594 95.1875,637.3594 95.1875,649.8594 L95.1875,656.1094 C95.1875,662.3594 88.9375,668.6094 82.6875,668.6094 L23.3125,668.6094 C17.0625,668.6094 10.8125,662.3594 10.8125,656.1094 L10.8125,649.8594 C10.8125,637.3594 23.3125,624.8594 35.8125,624.8594 C42.0625,631.1094 46.75,631.1094 53,631.1094" fill="#EEF2FF" style="stroke:#6366F1;stroke-width:0.7813;"/><text fill="#1E293B" font-family="'Helvetica Neue'" font-size="20.3125" lengthAdjust="spacing" textLength="80.5187" x="12.7406" y="689.2969">Empresa</text><text fill="#1E293B" font-family="'Helvetica Neue'" font-size="20.3125" lengthAdjust="spacing" textLength="74.8312" x="12.7406" y="713.5297">Parceira</text></g><!--entity email--><g class="entity" data-qualified-name="email" data-source-line="8" id="ent0004"><ellipse cx="1362.5312" cy="357.3344" fill="#EEF2FF" rx="25" ry="25" style="stroke:#6366F1;stroke-width:0.7813;"/><path d="M1362.5312,388.5844 C1368.7812,388.5844 1373.4687,388.5844 1379.7187,382.3344 C1392.2187,382.3344 1404.7187,394.8344 1404.7187,407.3344 L1404.7187,413.5844 C1404.7187,419.8344 1398.4687,426.0844 1392.2187,426.0844 L1332.8437,426.0844 C1326.5937,426.0844 1320.3437,419.8344 1320.3437,413.5844 L1320.3437,407.3344 C1320.3437,394.8344 1332.8437,382.3344 1345.3437,382.3344 C1351.5937,388.5844 1356.2812,388.5844 1362.5312,388.5844" fill="#EEF2FF" style="stroke:#6366F1;stroke-width:0.7813;"/><text fill="#1E293B" font-family="'Helvetica Neue'" font-size="20.3125" lengthAdjust="spacing" textLength="73.3687" x="1311.5469" y="446.7719">Sistema</text><text fill="#1E293B" font-family="'Helvetica Neue'" font-size="20.3125" lengthAdjust="spacing" textLength="5.6469" x="1384.9156" y="446.7719">&#160;</text><text fill="#1E293B" font-family="'Helvetica Neue'" font-size="20.3125" lengthAdjust="spacing" textLength="22.9531" x="1390.5625" y="446.7719">de</text><text fill="#1E293B" font-family="'Helvetica Neue'" font-size="20.3125" lengthAdjust="spacing" textLength="57.5656" x="1311.5469" y="471.0047">E-mail</text><text fill="#1E293B" font-family="'Helvetica Neue'" font-size="20.3125" font-style="italic" lengthAdjust="spacing" textLength="89.9031" x="1317.5797" y="327.2266">&#171;external&#187;</text></g><!--link aluno to UC1--><g class="link" data-entity-1="ent0001" data-entity-2="ent0006" data-link-type="dependency" data-source-line="23" id="lnk16"><path d="M96.3594,346.5156 C114.0781,357.4531 133.3125,372.5313 145.0469,391.2813 C161.9063,418.1719 136.7813,437.5938 157.5469,461.5938 C175.8125,482.6875 195.6405,492.9025 222.0936,499.9806" fill="none" id="aluno-to-UC1" style="stroke:#64748B;stroke-width:1.875;"/><polygon fill="#64748B" points="229.6406,502,217.6715,492.3275,222.0936,499.9806,214.4405,504.4027,229.6406,502" style="stroke:#64748B;stroke-width:1.875;stroke-linejoin:miter;stroke-miterlimit:10;"/></g><!--link aluno to UC2--><g class="link" data-entity-1="ent0001" data-entity-2="ent0007" data-link-type="dependency" data-source-line="24" id="lnk17"><path d="M96.4375,373.4844 C114.4063,396.6719 133.8125,425.8281 145.0469,455.3438 C153.3906,477.2344 142.9063,541.75 157.5469,560.0313 C173.2031,579.5469 189.1143,589.4519 212.7705,597.28" fill="none" id="aluno-to-UC2" style="stroke:#64748B;stroke-width:1.875;"/><polygon fill="#64748B" points="220.1875,599.7344,208.8005,589.383,212.7705,597.28,204.8735,601.2501,220.1875,599.7344" style="stroke:#64748B;stroke-width:1.875;stroke-linejoin:miter;stroke-miterlimit:10;"/></g><!--link aluno to UC4--><g class="link" data-entity-1="ent0001" data-entity-2="ent0009" data-link-type="dependency" data-source-line="25" id="lnk18"><path d="M65.9844,385.5469 C83.5,471.6563 119.0469,624.5 157.5469,664.7188 C175.4375,683.3906 192.8301,693.1025 217.2051,700.9619" fill="none" id="aluno-to-UC4" style="stroke:#64748B;stroke-width:1.875;"/><polygon fill="#64748B" points="224.6406,703.3594,213.1746,693.0955,217.2051,700.9619,209.3387,704.9923,224.6406,703.3594" style="stroke:#64748B;stroke-width:1.875;stroke-linejoin:miter;stroke-miterlimit:10;"/></g><!--link aluno to UC6--><g class="link" data-entity-1="ent0001" data-entity-2="ent0011" data-link-type="dependency" data-source-line="26" id="lnk19"><path d="M96,265.1875 C112.9063,244.5156 134.0313,222.9688 157.5469,208.4688 C181.3125,193.8125 202.3486,185.194 228.1924,177.3971" fill="none" id="aluno-to-UC6" style="stroke:#64748B;stroke-width:1.875;"/><polygon fill="#64748B" points="235.6719,175.1406,220.4035,173.2187,228.1924,177.3971,224.0139,185.186,235.6719,175.1406" style="stroke:#64748B;stroke-width:1.875;stroke-linejoin:miter;stroke-miterlimit:10;"/></g><!--link aluno to UC7--><g class="link" data-entity-1="ent0001" data-entity-2="ent0012" data-link-type="dependency" data-source-line="27" id="lnk20"><path d="M96.4531,288.3438 C110.4531,278.1406 126.7656,268.4375 143.4844,263.1563 C165.8125,256.0938 182.852,254.1263 206.352,255.2045" fill="none" id="aluno-to-UC7" style="stroke:#64748B;stroke-width:1.875;"/><polygon fill="#64748B" points="214.1563,255.5625,200.395,248.6746,206.352,255.2045,199.8221,261.1615,214.1563,255.5625" style="stroke:#64748B;stroke-width:1.875;stroke-linejoin:miter;stroke-miterlimit:10;"/></g><!--link aluno to UC10--><g class="link" data-entity-1="ent0001" data-entity-2="ent0015" data-link-type="dependency" data-source-line="28" id="lnk21"><path d="M96.4844,321.0313 C112.1094,320.6875 129.75,321.9688 145.0469,327.2188 C151.625,329.4688 151.5156,333.1563 157.5469,336.5938 C183.4531,351.3438 206.2449,361.6415 232.7136,372.0477" fill="none" id="aluno-to-UC10" style="stroke:#64748B;stroke-width:1.875;"/><polygon fill="#64748B" points="239.9844,374.9063,229.1838,363.9443,232.7136,372.0477,224.6102,375.5775,239.9844,374.9063" style="stroke:#64748B;stroke-width:1.875;stroke-linejoin:miter;stroke-miterlimit:10;"/></g><!--link prof to UC2--><g class="link" data-entity-1="ent0002" data-entity-2="ent0007" data-link-type="dependency" data-source-line="30" id="lnk22"><path d="M71.5469,809.2656 C87.125,764.2188 114.4531,704.0625 157.5469,666.2813 C177.3125,648.9531 195.6291,639.5915 220.2697,631.6227" fill="none" id="prof-to-UC2" style="stroke:#64748B;stroke-width:1.875;"/><polygon fill="#64748B" points="227.7031,629.2188,212.3998,627.5991,220.2697,631.6227,216.2461,639.4926,227.7031,629.2188" style="stroke:#64748B;stroke-width:1.875;stroke-linejoin:miter;stroke-miterlimit:10;"/></g><!--link prof to UC3--><g class="link" data-entity-1="ent0002" data-entity-2="ent0008" data-link-type="dependency" data-source-line="31" id="lnk23"><path d="M97.0781,879.625 C167.4688,894.5625 311.7344,916.6875 425.3438,878.7813 C525.3438,845.4063 612.6979,764.6185 659.1979,715.931" fill="none" id="prof-to-UC3" style="stroke:#64748B;stroke-width:1.875;"/><polygon fill="#64748B" points="664.5938,710.2813,650.3614,716.1341,659.1979,715.931,659.4009,724.7675,664.5938,710.2813" style="stroke:#64748B;stroke-width:1.875;stroke-linejoin:miter;stroke-miterlimit:10;"/></g><!--link prof to UC4--><g class="link" data-entity-1="ent0002" data-entity-2="ent0009" data-link-type="dependency" data-source-line="32" id="lnk24"><path d="M97.2344,862.5625 C114.4531,857.6719 133.0625,849.3125 145.0469,835.0313 C164.1406,812.2813 138.0938,791.8125 157.5469,769.4063 C173.9063,750.5625 189.9993,740.983 213.6399,733.3893" fill="none" id="prof-to-UC4" style="stroke:#64748B;stroke-width:1.875;"/><polygon fill="#64748B" points="221.0781,731,205.778,729.3501,213.6399,733.3893,209.6008,741.2512,221.0781,731" style="stroke:#64748B;stroke-width:1.875;stroke-linejoin:miter;stroke-miterlimit:10;"/></g><!--link empresa to UC1--><g class="link" data-entity-1="ent0003" data-entity-2="ent0006" data-link-type="dependency" data-source-line="34" id="lnk25"><path d="M96.3281,618.9688 C112.4375,607.5625 130.4531,593.5156 145.0469,578.7813 C151.7031,572.0625 149.9219,567.1563 157.5469,561.5938 C181.4219,544.1563 204.2096,534.6631 231.4127,527.0693" fill="none" id="empresa-to-UC1" style="stroke:#64748B;stroke-width:1.875;"/><polygon fill="#64748B" points="238.9375,524.9688,223.7124,522.7299,231.4127,527.0693,227.0733,534.7696,238.9375,524.9688" style="stroke:#64748B;stroke-width:1.875;stroke-linejoin:miter;stroke-miterlimit:10;"/></g><!--link empresa to UC2--><g class="link" data-entity-1="ent0003" data-entity-2="ent0007" data-link-type="dependency" data-source-line="35" id="lnk26"><path d="M96.5469,645.7813 C111.8594,645.375 129.2656,644.5313 145.0469,642.8438 C172.8906,639.8438 195.4475,636.3053 222.2444,631.2585" fill="none" id="empresa-to-UC2" style="stroke:#64748B;stroke-width:1.875;"/><polygon fill="#64748B" points="229.9219,629.8125,214.9456,626.2732,222.2444,631.2585,217.2591,638.5573,229.9219,629.8125" style="stroke:#64748B;stroke-width:1.875;stroke-linejoin:miter;stroke-miterlimit:10;"/></g><!--link empresa to UC5--><g class="link" data-entity-1="ent0003" data-entity-2="ent0010" data-link-type="dependency" data-source-line="36" id="lnk27"><path d="M96.7188,709.125 C113.5625,730.5938 134.4688,753.2188 157.5469,769.4063 C179.25,784.6094 198.2612,793.5428 222.8862,801.9334" fill="none" id="empresa-to-UC5" style="stroke:#64748B;stroke-width:1.875;"/><polygon fill="#64748B" points="230.2813,804.4531,218.986,794.0016,222.8862,801.9334,214.9545,805.8336,230.2813,804.4531" style="stroke:#64748B;stroke-width:1.875;stroke-linejoin:miter;stroke-miterlimit:10;"/></g><!--link empresa to UC10--><g class="link" data-entity-1="ent0003" data-entity-2="ent0015" data-link-type="dependency" data-source-line="37" id="lnk28"><path d="M82.0156,573.375 C99.0625,536.375 124.1406,493.0156 157.5469,463.1563 C179.0156,443.9688 199.7459,432.7336 225.8397,422.7961" fill="none" id="empresa-to-UC10" style="stroke:#64748B;stroke-width:1.875;"/><polygon fill="#64748B" points="233.1406,420.0156,217.7745,419.1797,225.8397,422.7961,222.2233,430.8613,233.1406,420.0156" style="stroke:#64748B;stroke-width:1.875;stroke-linejoin:miter;stroke-miterlimit:10;"/></g><!--link UC3 to UC8--><g class="link" data-entity-1="ent0008" data-entity-2="ent0013" data-link-type="dependency" data-source-line="39" id="lnk29"><path d="M743.0156,643.5781 C817.4687,589.4063 961.1364,484.8472 1037.0739,429.5816" fill="none" id="UC3-to-UC8" style="stroke:#64748B;stroke-width:1.875;stroke-dasharray:10.9375,10.9375;"/><polygon fill="#64748B" points="1043.3906,424.9844,1028.3428,428.2059,1037.0739,429.5816,1035.6982,438.3127,1043.3906,424.9844" style="stroke:#64748B;stroke-width:1.875;stroke-linejoin:miter;stroke-miterlimit:10;"/><text fill="#1E293B" font-family="'Helvetica Neue'" font-size="20.3125" lengthAdjust="spacing" textLength="84.2766" x="838.1875" y="511.3438">&#171;include&#187;</text></g><!--link UC7 to UC9--><g class="link" data-entity-1="ent0012" data-entity-2="ent0014" data-link-type="dependency" data-source-line="40" id="lnk30"><path d="M418.2344,272.5313 C478.625,272.5313 545.375,272.5313 602.0156,272.5313" fill="none" id="UC7-to-UC9" style="stroke:#64748B;stroke-width:1.875;stroke-dasharray:10.9375,10.9375;"/><polygon fill="#64748B" points="609.8281,272.5313,595.7656,266.2813,602.0156,272.5313,595.7656,278.7813,609.8281,272.5313" style="stroke:#64748B;stroke-width:1.875;stroke-linejoin:miter;stroke-miterlimit:10;"/><text fill="#1E293B" font-family="'Helvetica Neue'" font-size="20.3125" lengthAdjust="spacing" textLength="84.2766" x="473.7813" y="267.4375">&#171;include&#187;</text></g><!--link UC7 to UC8--><g class="link" data-entity-1="ent0012" data-entity-2="ent0013" data-link-type="dependency" data-source-line="41" id="lnk31"><path d="M381.625,299.9219 C440.2812,321.6094 526.7813,350.5 605.0313,364.7188 C727.75,387 862.7501,392.3436 961.422,392.9374" fill="none" id="UC7-to-UC8" style="stroke:#64748B;stroke-width:1.875;stroke-dasharray:10.9375,10.9375;"/><polygon fill="#64748B" points="969.2344,392.9844,955.2097,386.6499,961.422,392.9374,955.1345,399.1496,969.2344,392.9844" style="stroke:#64748B;stroke-width:1.875;stroke-linejoin:miter;stroke-miterlimit:10;"/><text fill="#1E293B" font-family="'Helvetica Neue'" font-size="20.3125" lengthAdjust="spacing" textLength="84.2766" x="655.9844" y="359.625">&#171;include&#187;</text></g><!--link UC9 to UC8--><g class="link" data-entity-1="ent0014" data-entity-2="ent0013" data-link-type="dependency" data-source-line="42" id="lnk32"><path d="M770.1719,294.1719 C836.2187,314.2344 927.0875,341.8537 997.2281,363.1662" fill="none" id="UC9-to-UC8" style="stroke:#64748B;stroke-width:1.875;stroke-dasharray:10.9375,10.9375;"/><polygon fill="#64748B" points="1004.7031,365.4375,993.0651,355.3691,997.2281,363.1662,989.431,367.3292,1004.7031,365.4375" style="stroke:#64748B;stroke-width:1.875;stroke-linejoin:miter;stroke-miterlimit:10;"/><text fill="#1E293B" font-family="'Helvetica Neue'" font-size="20.3125" lengthAdjust="spacing" textLength="84.2766" x="838.1875" y="312.6719">&#171;include&#187;</text></g><!--link UC8 to email--><g class="link" data-entity-1="ent0013" data-entity-2="ent0004" data-link-type="dependency" data-source-line="44" id="lnk33"><path d="M1213.5781,391.2813 C1248.0469,391.2813 1275.8906,391.2813 1303.5,391.2813" fill="none" id="UC8-to-email" style="stroke:#64748B;stroke-width:1.875;"/><polygon fill="#64748B" points="1311.3125,391.2813,1297.25,385.0313,1303.5,391.2813,1297.25,397.5313,1311.3125,391.2813" style="stroke:#64748B;stroke-width:1.875;stroke-linejoin:miter;stroke-miterlimit:10;"/></g><?plantuml-src VPFDRXCn4CVlVeeX9pWab3Jz2AeYLTk8Iv6gGcvx6RoJnP9tlBAz5GWXyH2y0GSUW4V8c_0aZ3UxpMwWtFpt_ERJusU6jMqAWX0_MvgPfhBAqZP2TE1D-J52OJpfQ1ohQA8bk35OUgmGn2d3u48wR8A3tz--mpiJ8krjRnqL2EiGcm8v6giKwkWyJAvjmsu2603JgR--ysvB8JZVccfHlMLTrPu2vdo7NfFns1Aql-sXG-QSrzCAZUqeES7L5NsAv1djQgLKwWUvb5uc_wbt0byKG1D8On0omm93zEYdWTh8c-pLq7xTH18tZHvUmgqh3NVKV4Yj-S48KQLS8MTq-nbqwEaeeUFGs2YqrEunzj3YdrN1WnID9LKTTJQaRgNB0yAXOyw7p3s54cDR_Nllf8sSZq9UZ75D7yW3ksYsqlNkv-w7oxcMfw33z3VPvT3f3QLATLExAcVjAj2xNuKf-ywMHoonJiEgoM-DpVbvTh-vUT7F_aHzbOrAmuFfTDM-nb3DHsenKkSZTJ6ESg9Ksht7C0DnEXGBfReDVCm_rlCZVNRCIoQ92RDPKfVmMhQq-uoof59NPra-QVdRP_c4HQMhbBRz3keF?></g></svg>