<svg xmlns="http://www.w3.org/2000/svg" xmlns:xlink="http://www.w3.org/1999/xlink" contentStyleType="text/css" data-diagram-type="DESCRIPTION" height="1282.8125px" preserveAspectRatio="none" style="width:1195px;height:1282px;background:#FFFFFF;" version="1.1" viewBox="0 0 1195 1282" width="1195.3125px" zoomAndPan="magnify"><?plantuml 1.2026.6?><defs/><g><g class="title" data-source-line="2"><text fill="#4338CA" font-family="'Helvetica Neue'" font-size="31.25" font-weight="700" lengthAdjust="spacing" textLength="892.156" x="146.1095" y="47">Diagrama de Componentes &#8212; Sistema de Moeda Estudantil</text></g><!--cluster FE--><g class="cluster" data-qualified-name="FE" data-source-line="6" id="ent0001"><path d="M159.375,80.3438 L476.7266,80.3438 A14.0625,14.0625 0 0 1 486.1016,89.7188 L497.0391,114.5203 L492.1875,114.5203 A9.375,9.375 0 0 1 501.5625,123.8953 L501.5625,383.5 A9.375,9.375 0 0 1 492.1875,392.875 L159.375,392.875 A9.375,9.375 0 0 1 150,383.5 L150,89.7188 A9.375,9.375 0 0 1 159.375,80.3438" fill="#F8FAFC" style="stroke:#8B5CF6;stroke-width:2.1875;"/><line style="stroke:#8B5CF6;stroke-width:2.1875;" x1="150" x2="497.0391" y1="114.5203" y2="114.5203"/><text fill="#4338CA" font-family="'Helvetica Neue'" font-size="20.3125" font-weight="700" lengthAdjust="spacing" textLength="326.7266" x="156.25" y="103.8625">Frontend (React + Vite + Tailwind)</text></g><!--cluster BE--><g class="cluster" data-qualified-name="BE" data-source-line="12" id="ent0005"><path d="M18.75,469.4375 L305.4297,469.4375 A14.0625,14.0625 0 0 1 314.8047,478.8125 L325.7422,503.6141 L539.0625,503.6141 A9.375,9.375 0 0 1 548.4375,512.9891 L548.4375,1250.4063 A9.375,9.375 0 0 1 539.0625,1259.7813 L18.75,1259.7813 A9.375,9.375 0 0 1 9.375,1250.4063 L9.375,478.8125 A9.375,9.375 0 0 1 18.75,469.4375" fill="#F8FAFC" style="stroke:#8B5CF6;stroke-width:2.1875;"/><line style="stroke:#8B5CF6;stroke-width:2.1875;" x1="9.375" x2="325.7422" y1="503.6141" y2="503.6141"/><text fill="#4338CA" font-family="'Helvetica Neue'" font-size="20.3125" font-weight="700" lengthAdjust="spacing" textLength="296.0547" x="15.625" y="492.9563">Backend (Spring Boot &#8212; MVC)</text></g><!--cluster INFRA--><g class="cluster" data-qualified-name="INFRA" data-source-line="27" id="ent0017"><path d="M595.3125,1078.9063 L806.7344,1078.9063 A14.0625,14.0625 0 0 1 816.1094,1088.2813 L827.0469,1113.0828 L1162.5,1113.0828 A9.375,9.375 0 0 1 1171.875,1122.4578 L1171.875,1245.3281 A9.375,9.375 0 0 1 1162.5,1254.7031 L595.3125,1254.7031 A9.375,9.375 0 0 1 585.9375,1245.3281 L585.9375,1088.2813 A9.375,9.375 0 0 1 595.3125,1078.9063" fill="#F8FAFC" style="stroke:#8B5CF6;stroke-width:2.1875;"/><line style="stroke:#8B5CF6;stroke-width:2.1875;" x1="585.9375" x2="827.0469" y1="1113.0828" y2="1113.0828"/><text fill="#4338CA" font-family="'Helvetica Neue'" font-size="20.3125" font-weight="700" lengthAdjust="spacing" textLength="220.7969" x="592.1875" y="1102.425">Infraestrutura (Docker)</text></g><!--entity UI--><g class="entity" data-qualified-name="FE.UI" data-source-line="7" id="ent0002"><rect fill="#EEF2FF" height="55.4828" rx="9.375" ry="9.375" style="stroke:#6366F1;stroke-width:2.1875;" width="213.7375" x="185.3125" y="161.5938"/><text fill="#1E293B" font-family="'Helvetica Neue'" font-size="20.3125" lengthAdjust="spacing" textLength="128.3141" x="200.9375" y="197.125">Componentes</text><text fill="#1E293B" font-family="'Helvetica Neue'" font-size="20.3125" lengthAdjust="spacing" textLength="5.6469" x="329.2516" y="197.125">&#160;</text><text fill="#1E293B" font-family="'Helvetica Neue'" font-size="20.3125" lengthAdjust="spacing" textLength="22.9531" x="334.8984" y="197.125">de</text><text fill="#1E293B" font-family="'Helvetica Neue'" font-size="20.3125" lengthAdjust="spacing" textLength="5.6469" x="357.8516" y="197.125">&#160;</text><text fill="#1E293B" font-family="'Helvetica Neue'" font-size="20.3125" lengthAdjust="spacing" textLength="19.9266" x="363.4984" y="197.125">UI</text></g><!--entity AX--><g class="entity" data-qualified-name="FE.AX" data-source-line="8" id="ent0003"><rect fill="#EEF2FF" height="55.4828" rx="9.375" ry="9.375" style="stroke:#6366F1;stroke-width:2.1875;" width="217.4141" x="183.4844" y="312.3906"/><text fill="#1E293B" font-family="'Helvetica Neue'" font-size="20.3125" lengthAdjust="spacing" textLength="63.1922" x="199.1094" y="347.9219">Cliente</text><text fill="#1E293B" font-family="'Helvetica Neue'" font-size="20.3125" lengthAdjust="spacing" textLength="5.6469" x="262.3016" y="347.9219">&#160;</text><text fill="#1E293B" font-family="'Helvetica Neue'" font-size="20.3125" lengthAdjust="spacing" textLength="51.1469" x="267.9484" y="347.9219">HTTP</text><text fill="#1E293B" font-family="'Helvetica Neue'" font-size="20.3125" lengthAdjust="spacing" textLength="5.6469" x="319.0953" y="347.9219">&#160;</text><text fill="#1E293B" font-family="'Helvetica Neue'" font-size="20.3125" lengthAdjust="spacing" textLength="60.5313" x="324.7422" y="347.9219">(Axios)</text></g><!--entity CTRL--><g class="entity" data-qualified-name="BE.CTRL" data-source-line="13" id="ent0006"><rect fill="#EEF2FF" height="79.7156" rx="9.375" ry="9.375" style="stroke:#6366F1;stroke-width:2.1875;" width="130.5375" x="226.9219" y="550.6875"/><text fill="#1E293B" font-family="'Helvetica Neue'" font-size="20.3125" lengthAdjust="spacing" textLength="99.2875" x="242.5469" y="586.2188">Controllers</text><text fill="#1E293B" font-family="'Helvetica Neue'" font-size="20.3125" lengthAdjust="spacing" textLength="56.4078" x="242.5469" y="610.4516">(REST</text><text fill="#1E293B" font-family="'Helvetica Neue'" font-size="20.3125" lengthAdjust="spacing" textLength="5.6469" x="298.9547" y="610.4516">&#160;</text><text fill="#1E293B" font-family="'Helvetica Neue'" font-size="20.3125" lengthAdjust="spacing" textLength="36.8469" x="304.6016" y="610.4516">API)</text></g><!--entity SRV--><g class="entity" data-qualified-name="BE.SRV" data-source-line="14" id="ent0007"><rect fill="#EEF2FF" height="79.7156" rx="9.375" ry="9.375" style="stroke:#6366F1;stroke-width:2.1875;" width="212.925" x="63.8438" y="725.7188"/><text fill="#1E293B" font-family="'Helvetica Neue'" font-size="20.3125" lengthAdjust="spacing" textLength="77.4719" x="79.4688" y="761.25">Services</text><text fill="#1E293B" font-family="'Helvetica Neue'" font-size="20.3125" lengthAdjust="spacing" textLength="69.5703" x="79.4688" y="785.4828">(Regras</text><text fill="#1E293B" font-family="'Helvetica Neue'" font-size="20.3125" lengthAdjust="spacing" textLength="5.6469" x="149.0391" y="785.4828">&#160;</text><text fill="#1E293B" font-family="'Helvetica Neue'" font-size="20.3125" lengthAdjust="spacing" textLength="22.9531" x="154.6859" y="785.4828">de</text><text fill="#1E293B" font-family="'Helvetica Neue'" font-size="20.3125" lengthAdjust="spacing" textLength="5.6469" x="177.6391" y="785.4828">&#160;</text><text fill="#1E293B" font-family="'Helvetica Neue'" font-size="20.3125" lengthAdjust="spacing" textLength="77.8578" x="183.2859" y="785.4828">neg&#243;cio)</text></g><!--entity REPO--><g class="entity" data-qualified-name="BE.REPO" data-source-line="15" id="ent0008"><rect fill="#EEF2FF" height="79.7156" rx="9.375" ry="9.375" style="stroke:#6366F1;stroke-width:2.1875;" width="210.325" x="33.9063" y="900.75"/><text fill="#1E293B" font-family="'Helvetica Neue'" font-size="20.3125" lengthAdjust="spacing" textLength="113.5875" x="49.5313" y="936.2813">Repositories</text><text fill="#1E293B" font-family="'Helvetica Neue'" font-size="20.3125" lengthAdjust="spacing" textLength="64.6953" x="49.5313" y="960.5141">(Spring</text><text fill="#1E293B" font-family="'Helvetica Neue'" font-size="20.3125" lengthAdjust="spacing" textLength="5.6469" x="114.2266" y="960.5141">&#160;</text><text fill="#1E293B" font-family="'Helvetica Neue'" font-size="20.3125" lengthAdjust="spacing" textLength="42.5141" x="119.8734" y="960.5141">Data</text><text fill="#1E293B" font-family="'Helvetica Neue'" font-size="20.3125" lengthAdjust="spacing" textLength="5.6469" x="162.3875" y="960.5141">&#160;</text><text fill="#1E293B" font-family="'Helvetica Neue'" font-size="20.3125" lengthAdjust="spacing" textLength="6.7641" x="168.0344" y="960.5141">/</text><text fill="#1E293B" font-family="'Helvetica Neue'" font-size="20.3125" lengthAdjust="spacing" textLength="5.6469" x="174.7984" y="960.5141">&#160;</text><text fill="#1E293B" font-family="'Helvetica Neue'" font-size="20.3125" lengthAdjust="spacing" textLength="48.1609" x="180.4453" y="960.5141">DAO)</text></g><!--entity SEC--><g class="entity" data-qualified-name="BE.SEC" data-source-line="16" id="ent0009"><rect fill="#EEF2FF" height="79.7156" rx="9.375" ry="9.375" style="stroke:#6366F1;stroke-width:2.1875;" width="161.9203" x="331.5469" y="725.7188"/><text fill="#1E293B" font-family="'Helvetica Neue'" font-size="20.3125" lengthAdjust="spacing" textLength="74.1" x="347.1719" y="761.25">Security</text><text fill="#1E293B" font-family="'Helvetica Neue'" font-size="20.3125" lengthAdjust="spacing" textLength="46.2719" x="347.1719" y="785.4828">(JWT</text><text fill="#1E293B" font-family="'Helvetica Neue'" font-size="20.3125" lengthAdjust="spacing" textLength="5.6469" x="393.4438" y="785.4828">&#160;</text><text fill="#1E293B" font-family="'Helvetica Neue'" font-size="20.3125" lengthAdjust="spacing" textLength="12.1875" x="399.0906" y="785.4828">+</text><text fill="#1E293B" font-family="'Helvetica Neue'" font-size="20.3125" lengthAdjust="spacing" textLength="5.6469" x="411.2781" y="785.4828">&#160;</text><text fill="#1E293B" font-family="'Helvetica Neue'" font-size="20.3125" lengthAdjust="spacing" textLength="60.9172" x="416.925" y="785.4828">Filtros)</text></g><!--entity MSG--><g class="entity" data-qualified-name="BE.MSG" data-source-line="17" id="ent0010"><rect fill="#EEF2FF" height="79.7156" rx="9.375" ry="9.375" style="stroke:#6366F1;stroke-width:2.1875;" width="223.8734" x="299" y="900.75"/><text fill="#1E293B" font-family="'Helvetica Neue'" font-size="20.3125" lengthAdjust="spacing" textLength="98.9422" x="314.625" y="936.2813">Messaging</text><text fill="#1E293B" font-family="'Helvetica Neue'" font-size="20.3125" lengthAdjust="spacing" textLength="88.7656" x="314.625" y="960.5141">(Producer</text><text fill="#1E293B" font-family="'Helvetica Neue'" font-size="20.3125" lengthAdjust="spacing" textLength="5.6469" x="403.3906" y="960.5141">&#160;</text><text fill="#1E293B" font-family="'Helvetica Neue'" font-size="20.3125" lengthAdjust="spacing" textLength="98.2109" x="409.0375" y="960.5141">RabbitMQ)</text></g><!--entity EC--><g class="entity" data-qualified-name="BE.EC" data-source-line="18" id="ent0011"><rect fill="#EEF2FF" height="79.7156" rx="9.375" ry="9.375" style="stroke:#6366F1;stroke-width:2.1875;" width="235.9188" x="263.2969" y="1155.0625"/><text fill="#1E293B" font-family="'Helvetica Neue'" font-size="20.3125" lengthAdjust="spacing" textLength="49.6641" x="278.9219" y="1190.5938">Email</text><text fill="#1E293B" font-family="'Helvetica Neue'" font-size="20.3125" lengthAdjust="spacing" textLength="5.6469" x="328.5859" y="1190.5938">&#160;</text><text fill="#1E293B" font-family="'Helvetica Neue'" font-size="20.3125" lengthAdjust="spacing" textLength="94.0672" x="334.2328" y="1190.5938">Consumer</text><text fill="#1E293B" font-family="'Helvetica Neue'" font-size="20.3125" lengthAdjust="spacing" textLength="100.0797" x="278.9219" y="1214.8266">(Templates</text><text fill="#1E293B" font-family="'Helvetica Neue'" font-size="20.3125" lengthAdjust="spacing" textLength="5.6469" x="379.0016" y="1214.8266">&#160;</text><text fill="#1E293B" font-family="'Helvetica Neue'" font-size="20.3125" lengthAdjust="spacing" textLength="98.9422" x="384.6484" y="1214.8266">Thymeleaf)</text></g><!--entity DB--><g class="entity" data-qualified-name="INFRA.DB" data-source-line="28" id="ent0018"><path d="M844.5313,1175.7813 C844.5313,1160.1563 906.2453,1160.1563 906.2453,1160.1563 C906.2453,1160.1563 967.9594,1160.1563 967.9594,1175.7813 L967.9594,1214.0766 C967.9594,1229.7016 906.2453,1229.7016 906.2453,1229.7016 C906.2453,1229.7016 844.5313,1229.7016 844.5313,1214.0766 L844.5313,1175.7813" fill="#ECFDF5" style="stroke:#10B981;stroke-width:2.1875;"/><path d="M844.5313,1175.7813 C844.5313,1191.4063 906.2453,1191.4063 906.2453,1191.4063 C906.2453,1191.4063 967.9594,1191.4063 967.9594,1175.7813" fill="none" style="stroke:#10B981;stroke-width:2.1875;"/><text fill="#1E293B" font-family="'Helvetica Neue'" font-size="20.3125" lengthAdjust="spacing" textLength="92.1781" x="860.1563" y="1217.5625">MongoDB</text></g><!--entity MQ--><g class="entity" data-qualified-name="INFRA.MQ" data-source-line="29" id="ent0019"><path d="M1030.0938,1175 L1138.6688,1175 C1146.4813,1175 1146.4813,1194.9289 1146.4813,1194.9289 C1146.4813,1194.9289 1146.4813,1214.8578 1138.6688,1214.8578 L1030.0938,1214.8578 C1022.2813,1214.8578 1022.2813,1194.9289 1022.2813,1194.9289 C1022.2813,1194.9289 1022.2813,1175 1030.0938,1175" fill="#FFF7ED" style="stroke:#F59E0B;stroke-width:2.1875;"/><path d="M1138.6688,1175 C1130.8563,1175 1130.8563,1194.9289 1130.8563,1194.9289 C1130.8563,1214.8578 1138.6688,1214.8578 1138.6688,1214.8578" fill="none" style="stroke:#F59E0B;stroke-width:2.1875;"/><text fill="#1E293B" font-family="'Helvetica Neue'" font-size="20.3125" lengthAdjust="spacing" textLength="92.95" x="1030.0938" y="1202.7188">RabbitMQ</text></g><!--entity MAIL--><g class="entity" data-qualified-name="INFRA.MAIL" data-source-line="30" id="ent0020"><rect fill="#EEF2FF" height="55.4828" rx="9.375" ry="9.375" style="stroke:#6366F1;stroke-width:2.1875;" width="178.6984" x="610.6563" y="1167.1875"/><text fill="#1E293B" font-family="'Helvetica Neue'" font-size="20.3125" lengthAdjust="spacing" textLength="75.6031" x="626.2813" y="1202.7188">MailHog</text><text fill="#1E293B" font-family="'Helvetica Neue'" font-size="20.3125" lengthAdjust="spacing" textLength="5.6469" x="701.8844" y="1202.7188">&#160;</text><text fill="#1E293B" font-family="'Helvetica Neue'" font-size="20.3125" lengthAdjust="spacing" textLength="66.1984" x="707.5312" y="1202.7188">(SMTP)</text></g><!--link UI to AX--><g class="link" data-entity-1="ent0002" data-entity-2="ent0003" data-link-type="dependency" data-source-line="9" id="lnk4"><path d="M292.1875,217.3125 C292.1875,244.0156 292.1875,277.2813 292.1875,304.0938" fill="none" id="UI-to-AX" style="stroke:#64748B;stroke-width:1.875;"/><polygon fill="#64748B" points="292.1875,311.9063,298.4375,297.8438,292.1875,304.0938,285.9375,297.8438,292.1875,311.9063" style="stroke:#64748B;stroke-width:1.875;stroke-linejoin:miter;stroke-miterlimit:10;"/></g><!--link CTRL to SRV--><g class="link" data-entity-1="ent0006" data-entity-2="ent0007" data-link-type="dependency" data-source-line="20" id="lnk12"><path d="M264.5313,631.125 C244.5938,659.25 222.3004,690.6897 202.3785,718.7834" fill="none" id="CTRL-to-SRV" style="stroke:#64748B;stroke-width:1.875;"/><polygon fill="#64748B" points="197.8594,725.1563,211.092,717.3005,202.3785,718.7834,200.8955,710.0699,197.8594,725.1563" style="stroke:#64748B;stroke-width:1.875;stroke-linejoin:miter;stroke-miterlimit:10;"/></g><!--link SRV to REPO--><g class="link" data-entity-1="ent0007" data-entity-2="ent0008" data-link-type="dependency" data-source-line="21" id="lnk13"><path d="M163.2188,806.1406 C158.1094,834.2813 152.6323,864.4073 147.5229,892.5011" fill="none" id="SRV-to-REPO" style="stroke:#64748B;stroke-width:1.875;"/><polygon fill="#64748B" points="146.125,900.1875,154.7904,887.4703,147.5229,892.5011,142.4921,885.2336,146.125,900.1875" style="stroke:#64748B;stroke-width:1.875;stroke-linejoin:miter;stroke-miterlimit:10;"/></g><!--link SRV to MSG--><g class="link" data-entity-1="ent0007" data-entity-2="ent0010" data-link-type="dependency" data-source-line="22" id="lnk14"><path d="M224.9063,806.1406 C264.2969,834.2813 310.8616,867.5526 350.1898,895.6463" fill="none" id="SRV-to-MSG" style="stroke:#64748B;stroke-width:1.875;"/><polygon fill="#64748B" points="356.5469,900.1875,348.737,886.9277,350.1898,895.6463,341.4711,897.0991,356.5469,900.1875" style="stroke:#64748B;stroke-width:1.875;stroke-linejoin:miter;stroke-miterlimit:10;"/></g><!--link CTRL to SEC--><g class="link" data-entity-1="ent0006" data-entity-2="ent0009" data-link-type="dependency" data-source-line="23" id="lnk15"><path d="M319.4844,631.125 C339.1719,659.25 361.1595,690.6629 380.8314,718.7567" fill="none" id="CTRL-to-SEC" style="stroke:#64748B;stroke-width:1.875;"/><polygon fill="#64748B" points="385.3125,725.1563,382.3661,710.0521,380.8314,718.7567,372.1268,717.2219,385.3125,725.1563" style="stroke:#64748B;stroke-width:1.875;stroke-linejoin:miter;stroke-miterlimit:10;"/></g><!--link MSG to EC--><g class="link" data-entity-1="ent0010" data-entity-2="ent0011" data-link-type="dependency" data-source-line="24" id="lnk16"><path d="M406.3594,980.8594 C400.7813,1028.0625 392.3225,1099.632 386.7444,1146.8664" fill="none" id="MSG-to-EC" style="stroke:#64748B;stroke-width:1.875;"/><polygon fill="#64748B" points="385.8281,1154.625,393.6842,1141.3925,386.7444,1146.8664,381.2705,1139.9265,385.8281,1154.625" style="stroke:#64748B;stroke-width:1.875;stroke-linejoin:miter;stroke-miterlimit:10;"/></g><!--link AX to CTRL--><g class="link" data-entity-1="ent0003" data-entity-2="ent0006" data-link-type="dependency" data-source-line="33" id="lnk21"><path d="M292.1875,368.6406 C292.1875,412.4531 292.1875,491.5156 292.1875,542.1094" fill="none" id="AX-to-CTRL" style="stroke:#64748B;stroke-width:1.875;"/><polygon fill="#64748B" points="292.1875,549.9219,298.4375,535.8594,292.1875,542.1094,285.9375,535.8594,292.1875,549.9219" style="stroke:#64748B;stroke-width:1.875;stroke-linejoin:miter;stroke-miterlimit:10;"/><text fill="#1E293B" font-family="'Helvetica Neue'" font-size="20.3125" lengthAdjust="spacing" textLength="51.1469" x="293.75" y="439.3438">HTTP</text><text fill="#1E293B" font-family="'Helvetica Neue'" font-size="20.3125" lengthAdjust="spacing" textLength="5.6469" x="344.8969" y="439.3438">&#160;</text><text fill="#1E293B" font-family="'Helvetica Neue'" font-size="20.3125" lengthAdjust="spacing" textLength="6.7641" x="350.5438" y="439.3438">/</text><text fill="#1E293B" font-family="'Helvetica Neue'" font-size="20.3125" lengthAdjust="spacing" textLength="5.6469" x="357.3078" y="439.3438">&#160;</text><text fill="#1E293B" font-family="'Helvetica Neue'" font-size="20.3125" lengthAdjust="spacing" textLength="53.8078" x="362.9547" y="439.3438">JSON</text></g><!--link REPO to DB--><g class="link" data-entity-1="ent0008" data-entity-2="ent0018" data-link-type="dependency" data-source-line="34" id="lnk22"><path d="M244.4688,974.5156 C253.6875,976.75 262.9063,978.7813 271.875,980.4688 C383.9219,1001.5625 681.1719,975.6719 782.8125,1027.3438 C837.5625,1055.1719 870.9927,1112.7896 889.3052,1152.7114" fill="none" id="REPO-to-DB" style="stroke:#64748B;stroke-width:1.875;"/><polygon fill="#64748B" points="892.5625,1159.8125,892.3802,1144.4247,889.3052,1152.7114,881.0185,1149.6364,892.5625,1159.8125" style="stroke:#64748B;stroke-width:1.875;stroke-linejoin:miter;stroke-miterlimit:10;"/><text fill="#1E293B" font-family="'Helvetica Neue'" font-size="20.3125" lengthAdjust="spacing" textLength="53.4016" x="820.6094" y="1048.8125">Driver</text><text fill="#1E293B" font-family="'Helvetica Neue'" font-size="20.3125" lengthAdjust="spacing" textLength="5.6469" x="874.0109" y="1048.8125">&#160;</text><text fill="#1E293B" font-family="'Helvetica Neue'" font-size="20.3125" lengthAdjust="spacing" textLength="63.9641" x="879.6578" y="1048.8125">Mongo</text></g><!--link MSG to MQ--><g class="link" data-entity-1="ent0010" data-entity-2="ent0019" data-link-type="dependency" data-source-line="35" id="lnk23"><path d="M523.0938,946.125 C672.625,953.4219 927.1406,973.5625 1001.5625,1027.3438 C1051.9531,1063.75 1071.8036,1131.9853 1079.3192,1167.1259" fill="none" id="MSG-to-MQ" style="stroke:#64748B;stroke-width:1.875;"/><polygon fill="#64748B" points="1080.9531,1174.7656,1084.1238,1159.707,1079.3192,1167.1259,1071.9003,1162.3213,1080.9531,1174.7656" style="stroke:#64748B;stroke-width:1.875;stroke-linejoin:miter;stroke-miterlimit:10;"/><text fill="#1E293B" font-family="'Helvetica Neue'" font-size="20.3125" lengthAdjust="spacing" textLength="59.4547" x="1028.2969" y="1048.8125">AMQP</text><text fill="#1E293B" font-family="'Helvetica Neue'" font-size="20.3125" lengthAdjust="spacing" textLength="5.6469" x="1087.7516" y="1048.8125">&#160;</text><text fill="#1E293B" font-family="'Helvetica Neue'" font-size="20.3125" lengthAdjust="spacing" textLength="65.8531" x="1093.3984" y="1048.8125">publish</text></g><!--link MQ to EC--><g class="link" data-entity-1="ent0019" data-entity-2="ent0011" data-link-type="dependency" data-source-line="36" id="lnk24"><path d="M1077.0625,1174.2813 C1065.1875,1144.2813 1038.5938,1089.6563 995.3125,1066.4063 C921.4375,1026.7031 701.5938,1055.3281 617.9688,1061.5781 C603.6094,1062.6563 599.4375,1061.3906 585.9375,1066.4063 C529.4844,1087.3281 478.2858,1120.5325 438.6764,1149.7669" fill="none" id="MQ-to-EC" style="stroke:#64748B;stroke-width:1.875;"/><polygon fill="#64748B" points="432.3906,1154.4063,447.4166,1151.0841,438.6764,1149.7669,439.9936,1141.0268,432.3906,1154.4063" style="stroke:#64748B;stroke-width:1.875;stroke-linejoin:miter;stroke-miterlimit:10;"/><text fill="#1E293B" font-family="'Helvetica Neue'" font-size="20.3125" lengthAdjust="spacing" textLength="59.4547" x="619.5313" y="1048.8125">AMQP</text><text fill="#1E293B" font-family="'Helvetica Neue'" font-size="20.3125" lengthAdjust="spacing" textLength="5.6469" x="678.9859" y="1048.8125">&#160;</text><text fill="#1E293B" font-family="'Helvetica Neue'" font-size="20.3125" lengthAdjust="spacing" textLength="83.5453" x="684.6328" y="1048.8125">consume</text></g><!--link EC to MAIL--><g class="link" data-entity-1="ent0011" data-entity-2="ent0020" data-link-type="dependency" data-source-line="37" id="lnk25"><path d="M499.9375,1194.9219 C536.4063,1194.9219 568.0938,1194.9219 602.2969,1194.9219" fill="none" id="EC-to-MAIL" style="stroke:#64748B;stroke-width:1.875;"/><polygon fill="#64748B" points="610.1094,1194.9219,596.0469,1188.6719,602.2969,1194.9219,596.0469,1201.1719,610.1094,1194.9219" style="stroke:#64748B;stroke-width:1.875;stroke-linejoin:miter;stroke-miterlimit:10;"/><text fill="#1E293B" font-family="'Helvetica Neue'" font-size="20.3125" lengthAdjust="spacing" textLength="55.6766" x="527.5938" y="1185.1406">SMTP</text></g><?plantuml-src RL9BRjim4Dth55ElN1HfzbqKa2ovKH35iYIxMNH3InE524Mg_AGDYW8zH6xI8_GcFKb7f8tOHZUsoFVUp9itVCDbAro7OEopmFVS3IAot0g4bBDUiu41WGirZ4gYj6ZWxwyNgBcn6A12OSSWCzPrJ5ekeiWySZaoaa9xaDLJST3OMYPxWL4qilQHzGYpfLPKLNOmhv2r5jx1bbkaluPnyOtBxkqCc85b1ZyYU2q8isDBP6EJUzucFsC9Fb7WgcbAcCVVkJAXO7n7n4qE5nSVf--VHvOI-l2Ewb5psKEYbFLJ5zj542V_SIEjLaAWDb_alChg1k8o3-n5KzsSiclKJxn5JqKAsKyWiV_pk-KgYEfgUwgfS5I6MwMvr-szfSmok8GqNWLPbPMhyrwjqzm-a-RwSqF1BhaWg_iOwcnnIY_G6DPJQUANMdMkHGqLs-suBTP1KzIVJZNPGBkYDoAD6r2JiC5X56pQJFFmFA10TX-ar8saKo0--30a_VhJtllX6DgyShrJklGdEXolB9Vtcg6nsbcd6SnJHIlKeMT-kwnYlw-EmjenG_n2oLwbYSVJXA2l3XtT7mODSwxFeg4fhrHFxw9eodqKSNup6Odll2jlzaDuR9TmNQzkesaeZwK98QdcJvIdRnyTPYdMXCJ5keJHxGGt3n7TX24FG1koZUZ6AwWjGPEFw1y0?></g></svg>